<?xml version="1.0" encoding="UTF-8"?>
<svg version="1.1" xmlns="http://www.w3.org/2000/svg" width="148" height="148">
<path d="M0 0 C48.84 0 97.68 0 148 0 C148 48.84 148 97.68 148 148 C99.16 148 50.32 148 0 148 C0 99.16 0 50.32 0 0 Z " fill="#050404" transform="translate(0,0)"/>
<path d="M0 0 C48.84 0 97.68 0 148 0 C148 48.84 148 97.68 148 148 C99.16 148 50.32 148 0 148 C0 99.16 0 50.32 0 0 Z M47 16 C45.98292969 16.4846875 44.96585938 16.969375 43.91796875 17.46875 C28.52037328 25.53321592 18.57601489 38.90357181 12.5 54.9375 C7.98235943 71.39461922 10.14901385 89.45421385 17.5625 104.625 C26.4675986 119.8173667 40.85481582 130.96295529 57.625 136.11328125 C62.82532043 137.35171501 67.99087171 137.32999385 73.3125 137.3125 C74.28123047 137.32861328 75.24996094 137.34472656 76.24804688 137.36132812 C92.00062376 137.37183685 106.52468083 131.13777964 117.8671875 120.32788086 C129.83664885 108.36044686 137.11622903 93.81693447 137.38037109 76.77832031 C137.36229894 66.79920783 137.16639017 58.22835954 133 49 C132.57589844 48.05253906 132.15179688 47.10507812 131.71484375 46.12890625 C128.20823562 39.08638686 123.52425011 33.55287317 118 28 C117.40832031 27.37351562 116.81664063 26.74703125 116.20703125 26.1015625 C111.98594693 21.98297692 107.21659581 19.33504972 102 16.6875 C101.33540771 16.34960449 100.67081543 16.01170898 99.98608398 15.66357422 C84.18072462 7.98918338 62.62979973 7.99100458 47 16 Z " fill="#FDFDFD" transform="translate(0,0)"/>
<path d="M0 0 C10.5580269 7.6236434 17.82654002 18.34028332 21 31 C21.495 35.455 21.495 35.455 22 40 C10.78 40 -0.44 40 -12 40 C-13.32 37.03 -14.64 34.06 -16 31 C-18.16168486 28.79712763 -18.16168486 28.79712763 -20.625 27.5 C-21.40101562 27.0359375 -22.17703125 26.571875 -22.9765625 26.09375 C-27.98528389 23.38633303 -32.34750022 23.13206778 -38 24 C-46.35693471 27.70773598 -48.14047957 31.31607904 -52 40 C-62.89 40 -73.78 40 -85 40 C-83.28453691 22.84536909 -77.43470283 12.15101971 -64.5234375 1.00390625 C-44.73221003 -14.71265674 -20.6545144 -12.31603295 0 0 Z " fill="#FB1B1B" transform="translate(106,30)"/>
<path d="M0 0 C11.22 0 22.44 0 34 0 C36.475 4.95 36.475 4.95 39 10 C44.81757263 15.28870239 49.88152723 15.80119135 57.65234375 15.46875 C62.88757113 14.73569599 65.0445593 13.59585518 69 10 C70.65 6.7 72.3 3.4 74 0 C84.89 0 95.78 0 107 0 C105.4626618 15.373382 99.58095113 28.36293125 87.40234375 38.37109375 C76.91853645 45.4796265 66.34472174 49.35793152 53.6875 49.3125 C52.80126953 49.32861328 51.91503906 49.34472656 51.00195312 49.36132812 C37.84064066 49.37092792 25.38276938 43.85331808 15.71484375 34.89453125 C6.92943149 25.18855187 0 13.40832435 0 0 Z " fill="#FCFCFC" transform="translate(20,78)"/>
<path d="M0 0 C12.24597268 1.83804468 23.62567285 10.02062331 31.02734375 19.6328125 C37.2048299 28.80109004 39.77960149 37.01641339 41 48 C29.78 48 18.56 48 7 48 C7 47.67 7 47.34 7 47 C13.6 47 20.2 47 27 47 C23.41205839 29.49084497 18.22970267 13.81195523 2.9375 2.9375 C1.968125 2.298125 0.99875 1.65875 0 1 C0 0.67 0 0.34 0 0 Z " fill="#D71717" transform="translate(87,22)"/>
<path d="M0 0 C10.89 0 21.78 0 33 0 C31.45973015 15.40269853 25.57060537 28.2946084 13.4296875 38.36328125 C8.2811299 41.83152182 2.62392399 44.40130479 -3 47 C-3 46.01 -3 45.02 -3 44 C-1.49609375 42.52734375 -1.49609375 42.52734375 0.5625 40.9375 C12.44091203 30.86075188 17.93072962 16.10567375 20 1 C13.4 1 6.8 1 0 1 C0 0.67 0 0.34 0 0 Z " fill="#DBDBDB" transform="translate(94,78)"/>
<path d="M0 0 C3.12578143 1.6720747 5.39281175 3.7856235 7 7 C7.51436888 11.08555854 7.92098732 15.21847627 5.98828125 18.95703125 C3.3328477 22.23445824 1.12471454 23.75728916 -3.0859375 24.23828125 C-7.16342681 24.37048653 -9.38504472 24.37944049 -12.9375 22.1875 C-16.96490251 17.91601249 -17.4856466 15.18134323 -17.39453125 9.515625 C-16.75668449 5.4485625 -14.9805206 3.76762628 -12 1 C-8.27533151 -0.86233425 -4.05504687 -0.57130829 0 0 Z " fill="#F9F9F9" transform="translate(79,62)"/>
</svg>
